<svg width="25" height="25" viewBox="0 0 25 25" fill="none" xmlns="http://www.w3.org/2000/svg">
<path d="M17.3824 11.5584V14.2606C17.3821 14.358 17.3432 14.4513 17.2744 14.5202C17.2055 14.5891 17.1121 14.6279 17.0147 14.6282H14.2353V17.3231C14.235 17.4205 14.1962 17.5138 14.1273 17.5827C14.0584 17.6516 13.9651 17.6904 13.8677 17.6907H11.1654C11.068 17.6904 10.9747 17.6516 10.9058 17.5827C10.8369 17.5138 10.7981 17.4205 10.7978 17.3231V14.6282H7.98529C7.88788 14.6279 7.79453 14.5891 7.72565 14.5202C7.65677 14.4513 7.61794 14.358 7.61765 14.2606V11.5584C7.61794 11.4609 7.65677 11.3676 7.72565 11.2987C7.79453 11.2298 7.88788 11.191 7.98529 11.1907H10.7978V8.29733C10.7981 8.19992 10.8369 8.10657 10.9058 8.03769C10.9747 7.96881 11.068 7.92998 11.1654 7.92969H13.8677C13.9651 7.92998 14.0584 7.96881 14.1273 8.03769C14.1962 8.10657 14.235 8.19992 14.2353 8.29733V11.1907H17.0147C17.1121 11.191 17.2055 11.2298 17.2744 11.2987C17.3432 11.3676 17.3821 11.4609 17.3824 11.5584Z" fill="#E19863"/>
<path d="M11.1507 20.364C11.066 20.3638 10.9822 20.381 10.9044 20.4145C10.8266 20.448 10.7566 20.4971 10.6985 20.5588C9.60533 20.3133 8.57817 19.8342 7.6875 19.1544C7.6732 19.1402 7.65714 19.1278 7.6397 19.1176C6.69923 18.3873 5.93782 17.452 5.41348 16.383C4.88914 15.3139 4.61569 14.1393 4.61397 12.9485V12.9448C4.61418 11.7763 4.87655 10.6227 5.38175 9.56905C5.88696 8.51537 6.62212 7.58847 7.53309 6.85662C7.59004 6.8253 7.64527 6.79094 7.69853 6.75368L7.7022 6.75C7.77573 6.7022 7.8897 6.6397 8.02941 6.56618C9.01103 6.03309 11.3125 4.79044 11.1324 2.40074C11.1256 2.30883 11.0843 2.22288 11.0168 2.16015C10.9493 2.09741 10.8605 2.06253 10.7684 2.0625C9.82226 2.09864 8.92336 2.48519 8.24632 3.14706C7.52206 3.88235 7.14706 4.92647 7.12868 6.24265C7.11823 6.2491 7.10838 6.25648 7.09926 6.2647C6.66439 6.60847 6.26531 6.99523 5.90809 7.41912C5.93015 6.23529 5.68015 4.59191 4.36029 3.52206C4.31771 3.48727 4.26781 3.46259 4.21432 3.44985C4.16083 3.43712 4.10516 3.43666 4.05147 3.44853C3.99729 3.45993 3.94636 3.48335 3.90245 3.51708C3.85854 3.55081 3.82278 3.59397 3.79779 3.64338C3.74632 3.75 2.53309 6.24265 3.37132 7.87132C3.5208 8.15409 3.72739 8.40272 3.97801 8.60144C4.22863 8.80017 4.51781 8.94465 4.82721 9.02573C4.46466 9.72117 4.20461 10.4654 4.05515 11.2353C3.55882 10.2169 2.65441 9.0772 1.07353 8.91544C1.02228 8.9106 0.970579 8.91661 0.921804 8.93308C0.873028 8.94955 0.828269 8.97611 0.790442 9.01103C0.75216 9.04445 0.721513 9.08571 0.70058 9.13202C0.679647 9.17833 0.668917 9.22859 0.669118 9.27941C0.669118 9.40073 0.672794 11.6397 1.97426 12.75C2.453 13.1585 3.06572 13.3758 3.69485 13.3603C3.75989 13.3614 3.82494 13.359 3.88971 13.3529C3.92895 14.2161 4.10133 15.0681 4.40074 15.8787C3.17039 15.5241 1.85679 15.5914 0.669118 16.0698C0.617932 16.0898 0.57187 16.1209 0.534328 16.161C0.496785 16.2011 0.468722 16.2491 0.452206 16.3015C0.434547 16.354 0.429339 16.4099 0.436996 16.4648C0.444653 16.5196 0.464963 16.572 0.496324 16.6176C0.540442 16.6838 1.59191 18.239 3.05515 18.2537H3.08088C3.46185 18.2357 3.8342 18.1341 4.17156 17.9562C4.50892 17.7784 4.80304 17.5285 5.03309 17.2243C5.42779 17.9103 5.91661 18.5377 6.48529 19.0882C5.38603 19.2573 3.73529 19.9448 3.37132 22.5184C3.36353 22.5726 3.36807 22.6278 3.38462 22.68C3.40118 22.7323 3.4293 22.78 3.46691 22.8198C3.50076 22.8573 3.54219 22.8872 3.58846 22.9075C3.63473 22.9278 3.68478 22.938 3.73529 22.9375H3.76103C3.79044 22.9338 6.78676 22.6985 7.65809 20.0331C8.55082 20.6381 9.55199 21.065 10.6066 21.2904C10.66 21.3867 10.7378 21.4671 10.8323 21.5235C10.9268 21.5799 11.0345 21.6104 11.1445 21.6117C11.2546 21.6131 11.363 21.5853 11.4588 21.5312C11.5547 21.4772 11.6345 21.3987 11.6902 21.3038C11.7459 21.2089 11.7756 21.101 11.7761 20.991C11.7767 20.8809 11.7481 20.7727 11.6933 20.6773C11.6385 20.5818 11.5595 20.5026 11.4642 20.4476C11.3689 20.3925 11.2608 20.3637 11.1507 20.364ZM24.5478 16.3015C24.5313 16.2491 24.5032 16.2011 24.4657 16.161C24.4281 16.1209 24.3821 16.0898 24.3309 16.0698C23.1432 15.5914 21.8296 15.5241 20.5993 15.8787C20.8987 15.0681 21.071 14.2161 21.1103 13.3529C21.1751 13.359 21.2401 13.3614 21.3051 13.3603C21.9343 13.3758 22.547 13.1585 23.0257 12.75C24.3272 11.6397 24.3309 9.40073 24.3309 9.27941C24.3311 9.22859 24.3203 9.17833 24.2994 9.13202C24.2785 9.08571 24.2478 9.04445 24.2096 9.01103C24.1717 8.97611 24.127 8.94955 24.0782 8.93308C24.0294 8.91661 23.9777 8.9106 23.9265 8.91544C22.3456 9.0772 21.4412 10.2169 20.9448 11.2353C20.7954 10.4654 20.5353 9.72117 20.1728 9.02573C20.4822 8.94465 20.7714 8.80017 21.022 8.60144C21.2726 8.40272 21.4792 8.15409 21.6287 7.87132C22.4669 6.24265 21.2537 3.75 21.2022 3.64338C21.1772 3.59397 21.1415 3.55081 21.0975 3.51708C21.0536 3.48335 21.0027 3.45993 20.9485 3.44853C20.8948 3.43666 20.8392 3.43712 20.7857 3.44985C20.7322 3.46259 20.6823 3.48727 20.6397 3.52206C19.3198 4.59191 19.0698 6.23529 19.0919 7.41912C18.7347 6.99523 18.3356 6.60847 17.9007 6.2647C17.8916 6.25648 17.8818 6.2491 17.8713 6.24265C17.8529 4.92647 17.4779 3.88235 16.7537 3.14706C16.0766 2.48519 15.1777 2.09864 14.2316 2.0625C14.1395 2.06253 14.0507 2.09741 13.9832 2.16015C13.9157 2.22288 13.8744 2.30883 13.8676 2.40074C13.6875 4.79044 15.989 6.03309 16.9706 6.56618C17.1103 6.64338 17.2279 6.7022 17.2941 6.74632C17.2941 6.75 17.2978 6.75 17.3015 6.75368C17.3547 6.79094 17.41 6.8253 17.4669 6.85662C18.3779 7.58847 19.113 8.51537 19.6182 9.56905C20.1234 10.6227 20.3858 11.7763 20.386 12.9448V12.9485C20.3842 14.1494 20.106 15.3338 19.573 16.4099C19.04 17.4861 18.2666 18.4251 17.3125 19.1544C16.4054 19.8487 15.3557 20.3334 14.239 20.5735C14.1331 20.4796 13.998 20.425 13.8566 20.4191C13.6909 20.4123 13.5292 20.4716 13.4071 20.584C13.2851 20.6964 13.2127 20.8526 13.2059 21.0184C13.1991 21.1841 13.2584 21.3458 13.3707 21.4679C13.4831 21.5899 13.6394 21.6623 13.8051 21.6691C13.9323 21.675 14.0581 21.6415 14.1654 21.573C14.2727 21.5045 14.3562 21.4046 14.4044 21.2868C15.4549 21.061 16.4521 20.6354 17.3419 20.0331C18.2132 22.6985 21.2096 22.9338 21.239 22.9375H21.2647C21.3152 22.938 21.3653 22.9278 21.4115 22.9075C21.4578 22.8872 21.4992 22.8573 21.5331 22.8198C21.5707 22.78 21.5988 22.7323 21.6154 22.68C21.6319 22.6278 21.6365 22.5726 21.6287 22.5184C21.2647 19.9448 19.614 19.2573 18.5147 19.0882C19.0834 18.5377 19.5722 17.9103 19.9669 17.2243C20.197 17.5285 20.4911 17.7784 20.8284 17.9562C21.1658 18.1341 21.5381 18.2357 21.9191 18.2537H21.9448C23.4081 18.239 24.4596 16.6838 24.5037 16.6176C24.535 16.572 24.5553 16.5196 24.563 16.4648C24.5707 16.4099 24.5654 16.354 24.5478 16.3015Z" fill="#E19863"/>
</svg>
