<svg width="34" height="34" viewBox="0 0 34 34" fill="none" xmlns="http://www.w3.org/2000/svg">
<path d="M12.4646 21.8477H11.7075V25.2543H12.4646C12.8364 25.2543 13.1353 25.1281 13.3544 24.8758C13.5735 24.6234 13.6864 24.298 13.6864 23.9062V23.1957C13.6864 22.8039 13.5735 22.4852 13.3544 22.2328C13.1353 21.9738 12.8364 21.8477 12.4646 21.8477Z" fill="black"/>
<path d="M24.2782 18.9854H2.67627V27.8771H21.0243L24.2782 18.9854ZM9.55596 23.7201C9.26377 23.9857 8.86533 24.1119 8.354 24.1119H7.35127V25.8717H6.57432V21.2232H8.354C8.86533 21.2232 9.27041 21.3561 9.55596 21.6217C9.84814 21.8873 9.99424 22.2326 9.99424 22.6643C9.99424 23.1092 9.84814 23.4545 9.55596 23.7201ZM14.4567 23.9061C14.4567 24.4904 14.2708 24.9619 13.9056 25.3271C13.5337 25.6924 13.0556 25.8783 12.4646 25.8783H10.9306V21.2299H12.4646C13.0556 21.2299 13.5337 21.4158 13.9056 21.7811C14.2774 22.1463 14.4567 22.6244 14.4567 23.2021V23.9061ZM18.481 21.8475H16.2829V23.2686H18.1556V23.8928H16.2829V25.8783H15.506V21.2299H18.481V21.8475Z" fill="black"/>
<path d="M8.35381 21.8477H7.35107V23.4879H8.35381C8.63936 23.4879 8.8585 23.4082 9.00459 23.2555C9.15068 23.1027 9.22373 22.9102 9.22373 22.6711C9.22373 22.432 9.15068 22.2395 9.00459 22.0801C8.8585 21.9273 8.63936 21.8477 8.35381 21.8477Z" fill="black"/>
<path d="M23.435 0.398438H7.13223C6.64746 0.398438 6.24902 0.796875 6.24902 1.28164V18.3348H8.01543V2.16484H23.435V8.2875H29.5576V31.8352H8.01543V28.5281H6.24902V32.7184C6.24902 33.2031 6.64746 33.6016 7.13223 33.6016H30.4408C30.9256 33.6016 31.324 33.2031 31.324 32.7184V8.2875L23.435 0.398438Z" fill="black"/>
<path d="M27.1999 11.3818H10.3726V12.6834H27.1999V11.3818Z" fill="black"/>
<path d="M24.537 13.9121H10.3726V15.2137H24.537V13.9121Z" fill="black"/>
</svg>
