<svg width="248" height="48" viewBox="0 0 248 48" fill="none" xmlns="http://www.w3.org/2000/svg">
<g clip-path="url(#clip0_2380_9)">
<path d="M17.8215 39.9355C16.1159 38.2537 16.1159 35.5188 17.8218 33.8378L18.6036 33.0673H17.5024C15.0895 33.0673 13.1268 31.133 13.1268 28.7548C13.1268 26.3767 15.0895 24.4423 17.5024 24.4423L18.6073 24.4419L17.8215 23.6648C16.1159 21.983 16.1159 19.2481 17.8215 17.5662C18.651 16.7559 19.7541 16.3066 20.9209 16.3066C21.7938 16.3066 22.6274 16.5581 23.3384 17.0241L23.3421 14.531C23.3421 11.2625 20.4779 8.62644 16.9564 8.62644C12.9454 8.62644 11.6719 11.187 9.65551 14.2983C5.46222 20.7562 2.32728 27.7569 0.357341 35.0522C0.114586 35.9285 0 36.818 0 37.7164C0 43.2193 5.69741 47.1949 11.4222 45.6784L16.8461 44.2498C18.8279 43.7227 20.4842 42.5976 21.6328 41.1296C21.4001 41.1668 21.1646 41.1978 20.9242 41.1978C19.7541 41.1934 18.651 40.7441 17.8215 39.9355ZM31.2765 13.5395L31.3585 1.4375C31.3585 0.640137 30.7113 0 29.9 0H28.4415C27.6324 0 26.9829 0.640137 26.9829 1.4375L26.9009 13.5395C27.547 13.1681 28.2883 12.9397 29.0066 12.9397C29.725 12.9397 30.7113 13.1621 31.2765 13.5395ZM38.4507 37.8961C39.0204 37.3346 39.0204 36.4253 38.4507 35.8638L37.6689 35.0933C35.8311 33.2821 37.1328 30.1852 39.7318 30.1852H40.839C41.6452 30.1852 42.2976 29.5422 42.2976 28.7477C42.2976 27.9531 41.6452 27.3102 40.839 27.3102H39.7342C37.1353 27.3102 35.8335 24.2132 37.6713 22.402L38.453 21.6314C39.0228 21.0699 39.0228 20.1607 38.453 19.5991C37.8833 19.0376 36.9599 19.0376 36.391 19.5991L35.6093 20.3697C33.7742 22.1824 30.6293 20.8977 30.6293 18.3371V17.2482C30.6293 16.4536 29.9769 15.8916 29.1707 15.8916C28.3645 15.8916 27.7122 16.5345 27.7122 17.2482V18.3371C27.7122 20.8986 24.57 22.1815 22.7322 20.3703L21.951 19.6039C21.3812 19.0424 20.4578 19.0424 19.889 19.6039C19.3201 20.1654 19.3192 21.0746 19.889 21.6362L20.6707 22.4068C22.5085 24.218 21.2069 27.3149 18.6078 27.3149H17.5024C16.6962 27.3149 16.0439 27.9578 16.0439 28.7524C16.0439 29.547 16.6962 30.1899 17.5024 30.1899H18.6073C21.2062 30.1899 22.508 33.2868 20.6702 35.0981L19.8884 35.8686C19.3187 36.4301 19.3187 37.3393 19.8884 37.9009C20.1733 38.1816 20.5465 38.322 20.9194 38.322C21.2924 38.322 21.6658 38.1817 21.9504 37.9009L22.7322 37.1304C24.5672 35.3176 27.7122 36.6023 27.7122 39.1629V40.2518C27.7122 41.0464 28.3645 41.6893 29.1707 41.6893C29.9769 41.6893 30.6293 41.0464 30.6293 40.2518V39.1629C30.6293 36.6014 33.7715 35.3185 35.6093 37.1297L36.391 37.9001C36.6759 38.1809 37.0491 38.3213 37.422 38.3213C37.795 38.3213 38.1681 38.1746 38.4507 37.8961ZM26.2537 27.2316C25.4482 27.2316 24.7951 26.5882 24.7951 25.875C24.7951 25.1618 25.4515 24.3566 26.2537 24.3566C27.0559 24.3566 27.7122 25.0844 27.7122 25.7941C27.7122 26.5039 27.0559 27.2316 26.2537 27.2316ZM32.0878 32.9816C31.2823 32.9816 30.6293 32.3378 30.6293 31.5441C30.6293 30.7505 31.2823 30.1875 32.0878 30.1875C32.8933 30.1875 33.5463 30.8313 33.5463 31.625C33.5463 32.4187 32.89 32.9816 32.0878 32.9816ZM57.9859 35.048C56.0151 27.7482 52.8792 20.7539 48.6878 14.2941C46.6713 11.1829 45.3979 8.6223 41.3869 8.6223C37.8663 8.6223 35.0049 11.2592 35.0049 14.5277V17.02C35.7155 16.5539 36.5491 16.3025 37.4224 16.3025C38.5911 16.3025 39.6904 16.7516 40.5172 17.5666C42.2228 19.2485 42.2228 21.9833 40.5172 23.6652L39.7355 24.4353L40.839 24.4375C43.252 24.4375 45.2146 26.3727 45.2146 28.75C45.2146 31.1282 43.252 33.0625 40.839 33.0625H39.7342L40.516 33.833C42.2215 35.5149 42.2215 38.2497 40.5153 39.9307C39.6889 40.7452 38.59 41.1939 37.4214 41.1939C37.181 41.1939 36.9464 41.163 36.7136 41.1258C37.8622 42.5939 39.5186 43.7187 41.5004 44.2461L46.9243 45.6746C52.6441 47.1949 58.3415 43.2148 58.3415 37.7164C58.3415 36.818 58.223 35.9285 57.9859 35.048Z" fill="#FF974B"/>
</g>
<path d="M70.3153 23V8.3H76.7413C78.3373 8.3 79.7373 8.608 80.9413 9.224C82.1453 9.84 83.0833 10.694 83.7553 11.786C84.4273 12.878 84.7633 14.166 84.7633 15.65C84.7633 17.12 84.4273 18.408 83.7553 19.514C83.0833 20.606 82.1453 21.46 80.9413 22.076C79.7373 22.692 78.3373 23 76.7413 23H70.3153ZM73.0453 20.69H76.6153C77.7213 20.69 78.6733 20.48 79.4713 20.06C80.2833 19.64 80.9063 19.052 81.3403 18.296C81.7883 17.54 82.0123 16.658 82.0123 15.65C82.0123 14.628 81.7883 13.746 81.3403 13.004C80.9063 12.248 80.2833 11.66 79.4713 11.24C78.6733 10.82 77.7213 10.61 76.6153 10.61H73.0453V20.69ZM87.4129 23V11.786H89.9119V14.873L89.6179 13.97C89.9539 13.214 90.4789 12.64 91.1929 12.248C91.9209 11.856 92.8239 11.66 93.9019 11.66V14.159C93.7899 14.131 93.6849 14.117 93.5869 14.117C93.4889 14.103 93.3909 14.096 93.2929 14.096C92.2989 14.096 91.5079 14.39 90.9199 14.978C90.3319 15.552 90.0379 16.413 90.0379 17.561V23H87.4129ZM96.8662 23.147C96.3902 23.147 95.9842 22.986 95.6482 22.664C95.3122 22.328 95.1442 21.908 95.1442 21.404C95.1442 20.872 95.3122 20.452 95.6482 20.144C95.9842 19.822 96.3902 19.661 96.8662 19.661C97.3422 19.661 97.7482 19.822 98.0842 20.144C98.4202 20.452 98.5882 20.872 98.5882 21.404C98.5882 21.908 98.4202 22.328 98.0842 22.664C97.7482 22.986 97.3422 23.147 96.8662 23.147ZM111.556 23L105.13 8.3H108.091L113.824 21.593H112.123L117.919 8.3H120.649L114.244 23H111.556ZM122.316 23.147C121.84 23.147 121.434 22.986 121.098 22.664C120.762 22.328 120.594 21.908 120.594 21.404C120.594 20.872 120.762 20.452 121.098 20.144C121.434 19.822 121.84 19.661 122.316 19.661C122.792 19.661 123.198 19.822 123.534 20.144C123.87 20.452 124.038 20.872 124.038 21.404C124.038 21.908 123.87 22.328 123.534 22.664C123.198 22.986 122.792 23.147 122.316 23.147ZM132.659 23V8.3H134.906L144.125 19.619H143.012V8.3H145.721V23H143.474L134.255 11.681H135.368V23H132.659ZM156.317 23V20.732L156.17 20.249V16.28C156.17 15.51 155.939 14.915 155.477 14.495C155.015 14.061 154.315 13.844 153.377 13.844C152.747 13.844 152.124 13.942 151.508 14.138C150.906 14.334 150.395 14.607 149.975 14.957L148.946 13.046C149.548 12.584 150.262 12.241 151.088 12.017C151.928 11.779 152.796 11.66 153.692 11.66C155.316 11.66 156.569 12.052 157.451 12.836C158.347 13.606 158.795 14.803 158.795 16.427V23H156.317ZM152.789 23.147C151.949 23.147 151.214 23.007 150.584 22.727C149.954 22.433 149.464 22.034 149.114 21.53C148.778 21.012 148.61 20.431 148.61 19.787C148.61 19.157 148.757 18.59 149.051 18.086C149.359 17.582 149.856 17.183 150.542 16.889C151.228 16.595 152.138 16.448 153.272 16.448H156.527V18.191H153.461C152.565 18.191 151.963 18.338 151.655 18.632C151.347 18.912 151.193 19.262 151.193 19.682C151.193 20.158 151.382 20.536 151.76 20.816C152.138 21.096 152.663 21.236 153.335 21.236C153.979 21.236 154.553 21.089 155.057 20.795C155.575 20.501 155.946 20.067 156.17 19.493L156.611 21.068C156.359 21.726 155.904 22.237 155.246 22.601C154.602 22.965 153.783 23.147 152.789 23.147ZM167.266 27.221C166.23 27.221 165.215 27.081 164.221 26.801C163.241 26.535 162.436 26.143 161.806 25.625L162.982 23.651C163.472 24.057 164.088 24.379 164.83 24.617C165.586 24.869 166.349 24.995 167.119 24.995C168.351 24.995 169.254 24.708 169.828 24.134C170.402 23.574 170.689 22.727 170.689 21.593V19.598L170.899 17.057L170.815 14.516V11.786H173.314V21.299C173.314 23.329 172.796 24.82 171.76 25.772C170.724 26.738 169.226 27.221 167.266 27.221ZM166.93 22.496C165.866 22.496 164.9 22.272 164.032 21.824C163.178 21.362 162.499 20.725 161.995 19.913C161.505 19.101 161.26 18.149 161.26 17.057C161.26 15.979 161.505 15.034 161.995 14.222C162.499 13.41 163.178 12.78 164.032 12.332C164.9 11.884 165.866 11.66 166.93 11.66C167.882 11.66 168.736 11.849 169.492 12.227C170.248 12.605 170.85 13.193 171.298 13.991C171.76 14.789 171.991 15.811 171.991 17.057C171.991 18.303 171.76 19.332 171.298 20.144C170.85 20.942 170.248 21.537 169.492 21.929C168.736 22.307 167.882 22.496 166.93 22.496ZM167.329 20.27C167.987 20.27 168.575 20.137 169.093 19.871C169.611 19.591 170.01 19.213 170.29 18.737C170.584 18.247 170.731 17.687 170.731 17.057C170.731 16.427 170.584 15.874 170.29 15.398C170.01 14.908 169.611 14.537 169.093 14.285C168.575 14.019 167.987 13.886 167.329 13.886C166.671 13.886 166.076 14.019 165.544 14.285C165.026 14.537 164.62 14.908 164.326 15.398C164.046 15.874 163.906 16.427 163.906 17.057C163.906 17.687 164.046 18.247 164.326 18.737C164.62 19.213 165.026 19.591 165.544 19.871C166.076 20.137 166.671 20.27 167.329 20.27ZM183.674 23V20.732L183.527 20.249V16.28C183.527 15.51 183.296 14.915 182.834 14.495C182.372 14.061 181.672 13.844 180.734 13.844C180.104 13.844 179.481 13.942 178.865 14.138C178.263 14.334 177.752 14.607 177.332 14.957L176.303 13.046C176.905 12.584 177.619 12.241 178.445 12.017C179.285 11.779 180.153 11.66 181.049 11.66C182.673 11.66 183.926 12.052 184.808 12.836C185.704 13.606 186.152 14.803 186.152 16.427V23H183.674ZM180.146 23.147C179.306 23.147 178.571 23.007 177.941 22.727C177.311 22.433 176.821 22.034 176.471 21.53C176.135 21.012 175.967 20.431 175.967 19.787C175.967 19.157 176.114 18.59 176.408 18.086C176.716 17.582 177.213 17.183 177.899 16.889C178.585 16.595 179.495 16.448 180.629 16.448H183.884V18.191H180.818C179.922 18.191 179.32 18.338 179.012 18.632C178.704 18.912 178.55 19.262 178.55 19.682C178.55 20.158 178.739 20.536 179.117 20.816C179.495 21.096 180.02 21.236 180.692 21.236C181.336 21.236 181.91 21.089 182.414 20.795C182.932 20.501 183.303 20.067 183.527 19.493L183.968 21.068C183.716 21.726 183.261 22.237 182.603 22.601C181.959 22.965 181.14 23.147 180.146 23.147ZM189.521 23V11.786H192.02V14.873L191.726 13.97C192.062 13.214 192.587 12.64 193.301 12.248C194.029 11.856 194.932 11.66 196.01 11.66V14.159C195.898 14.131 195.793 14.117 195.695 14.117C195.597 14.103 195.499 14.096 195.401 14.096C194.407 14.096 193.616 14.39 193.028 14.978C192.44 15.552 192.146 16.413 192.146 17.561V23H189.521ZM197.185 27.221C196.695 27.221 196.233 27.165 195.799 27.053C195.351 26.955 194.973 26.794 194.665 26.57L195.421 24.617C195.827 24.911 196.338 25.058 196.954 25.058C197.43 25.058 197.801 24.904 198.067 24.596C198.333 24.302 198.466 23.861 198.466 23.273V11.786H201.091V23.21C201.091 24.442 200.748 25.415 200.062 26.129C199.39 26.857 198.431 27.221 197.185 27.221ZM199.768 9.938C199.278 9.938 198.872 9.784 198.55 9.476C198.242 9.168 198.088 8.797 198.088 8.363C198.088 7.915 198.242 7.544 198.55 7.25C198.872 6.942 199.278 6.788 199.768 6.788C200.258 6.788 200.657 6.935 200.965 7.229C201.287 7.509 201.448 7.866 201.448 8.3C201.448 8.762 201.294 9.154 200.986 9.476C200.678 9.784 200.272 9.938 199.768 9.938ZM209.279 23.147C208.327 23.147 207.487 22.972 206.759 22.622C206.031 22.258 205.464 21.712 205.058 20.984C204.652 20.242 204.449 19.311 204.449 18.191V11.786H207.074V17.834C207.074 18.842 207.298 19.598 207.746 20.102C208.208 20.592 208.859 20.837 209.699 20.837C210.315 20.837 210.847 20.711 211.295 20.459C211.757 20.207 212.114 19.829 212.366 19.325C212.632 18.821 212.765 18.198 212.765 17.456V11.786H215.39V23H212.891V19.976L213.332 20.9C212.954 21.628 212.401 22.188 211.673 22.58C210.945 22.958 210.147 23.147 209.279 23.147ZM225.19 11.66C226.086 11.66 226.884 11.835 227.584 12.185C228.298 12.535 228.858 13.074 229.264 13.802C229.67 14.516 229.873 15.44 229.873 16.574V23H227.248V16.91C227.248 15.916 227.01 15.174 226.534 14.684C226.072 14.194 225.421 13.949 224.581 13.949C223.965 13.949 223.419 14.075 222.943 14.327C222.467 14.579 222.096 14.957 221.83 15.461C221.578 15.951 221.452 16.574 221.452 17.33V23H218.827V11.786H221.326V14.81L220.885 13.886C221.277 13.172 221.844 12.626 222.586 12.248C223.342 11.856 224.21 11.66 225.19 11.66ZM240.112 23V20.732L239.965 20.249V16.28C239.965 15.51 239.734 14.915 239.272 14.495C238.81 14.061 238.11 13.844 237.172 13.844C236.542 13.844 235.919 13.942 235.303 14.138C234.701 14.334 234.19 14.607 233.77 14.957L232.741 13.046C233.343 12.584 234.057 12.241 234.883 12.017C235.723 11.779 236.591 11.66 237.487 11.66C239.111 11.66 240.364 12.052 241.246 12.836C242.142 13.606 242.59 14.803 242.59 16.427V23H240.112ZM236.584 23.147C235.744 23.147 235.009 23.007 234.379 22.727C233.749 22.433 233.259 22.034 232.909 21.53C232.573 21.012 232.405 20.431 232.405 19.787C232.405 19.157 232.552 18.59 232.846 18.086C233.154 17.582 233.651 17.183 234.337 16.889C235.023 16.595 235.933 16.448 237.067 16.448H240.322V18.191H237.256C236.36 18.191 235.758 18.338 235.45 18.632C235.142 18.912 234.988 19.262 234.988 19.682C234.988 20.158 235.177 20.536 235.555 20.816C235.933 21.096 236.458 21.236 237.13 21.236C237.774 21.236 238.348 21.089 238.852 20.795C239.37 20.501 239.741 20.067 239.965 19.493L240.406 21.068C240.154 21.726 239.699 22.237 239.041 22.601C238.397 22.965 237.578 23.147 236.584 23.147ZM70.3153 45V30.3H72.5623L78.9883 41.031H77.8123L84.1333 30.3H86.3803L86.4013 45H83.8183L83.7973 34.353H84.3433L78.9673 43.32H77.7493L72.2893 34.353H72.9193V45H70.3153ZM97.0289 45V42.732L96.8819 42.249V38.28C96.8819 37.51 96.6509 36.915 96.1889 36.495C95.7269 36.061 95.0269 35.844 94.0889 35.844C93.4589 35.844 92.8359 35.942 92.2199 36.138C91.6179 36.334 91.1069 36.607 90.6869 36.957L89.6579 35.046C90.2599 34.584 90.9739 34.241 91.7999 34.017C92.6399 33.779 93.5079 33.66 94.4039 33.66C96.0279 33.66 97.2809 34.052 98.1629 34.836C99.059 35.606 99.507 36.803 99.507 38.427V45H97.0289ZM93.5009 45.147C92.6609 45.147 91.9259 45.007 91.2959 44.727C90.6659 44.433 90.1759 44.034 89.8259 43.53C89.4899 43.012 89.3219 42.431 89.3219 41.787C89.3219 41.157 89.4689 40.59 89.7629 40.086C90.0709 39.582 90.5679 39.183 91.2539 38.889C91.9399 38.595 92.8499 38.448 93.9839 38.448H97.2389V40.191H94.1729C93.2769 40.191 92.6749 40.338 92.3669 40.632C92.0589 40.912 91.9049 41.262 91.9049 41.682C91.9049 42.158 92.0939 42.536 92.4719 42.816C92.8499 43.096 93.3749 43.236 94.0469 43.236C94.6909 43.236 95.2649 43.089 95.7689 42.795C96.2869 42.501 96.6579 42.067 96.8819 41.493L97.3229 43.068C97.0709 43.726 96.6159 44.237 95.9579 44.601C95.3139 44.965 94.4949 45.147 93.5009 45.147ZM107.097 45.147C105.865 45.147 104.913 44.832 104.241 44.202C103.569 43.558 103.233 42.613 103.233 41.367V31.308H105.858V41.304C105.858 41.836 105.991 42.249 106.257 42.543C106.537 42.837 106.922 42.984 107.412 42.984C108 42.984 108.49 42.83 108.882 42.522L109.617 44.391C109.309 44.643 108.931 44.832 108.483 44.958C108.035 45.084 107.573 45.147 107.097 45.147ZM101.385 35.97V33.87H108.861V35.97H101.385ZM116.522 45.147C115.57 45.147 114.73 44.972 114.002 44.622C113.274 44.258 112.707 43.712 112.301 42.984C111.895 42.242 111.692 41.311 111.692 40.191V33.786H114.317V39.834C114.317 40.842 114.541 41.598 114.989 42.102C115.451 42.592 116.102 42.837 116.942 42.837C117.558 42.837 118.09 42.711 118.538 42.459C119 42.207 119.357 41.829 119.609 41.325C119.875 40.821 120.008 40.198 120.008 39.456V33.786H122.633V45H120.134V41.976L120.575 42.9C120.197 43.628 119.644 44.188 118.916 44.58C118.188 44.958 117.39 45.147 116.522 45.147ZM126.07 45V33.786H128.569V36.873L128.275 35.97C128.611 35.214 129.136 34.64 129.85 34.248C130.578 33.856 131.481 33.66 132.559 33.66V36.159C132.447 36.131 132.342 36.117 132.244 36.117C132.146 36.103 132.048 36.096 131.95 36.096C130.956 36.096 130.165 36.39 129.577 36.978C128.989 37.552 128.695 38.413 128.695 39.561V45H126.07ZM139.635 45.147C138.683 45.147 137.843 44.972 137.115 44.622C136.387 44.258 135.82 43.712 135.414 42.984C135.008 42.242 134.805 41.311 134.805 40.191V33.786H137.43V39.834C137.43 40.842 137.654 41.598 138.102 42.102C138.564 42.592 139.215 42.837 140.055 42.837C140.671 42.837 141.203 42.711 141.651 42.459C142.113 42.207 142.47 41.829 142.722 41.325C142.988 40.821 143.121 40.198 143.121 39.456V33.786H145.746V45H143.247V41.976L143.688 42.9C143.31 43.628 142.757 44.188 142.029 44.58C141.301 44.958 140.503 45.147 139.635 45.147Z" fill="#112745"/>
<defs>
<clipPath id="clip0_2380_9">
<rect width="58.3415" height="46" fill="white"/>
</clipPath>
</defs>
</svg>
