<?xml version="1.0" encoding="UTF-8"?>
<!DOCTYPE svg PUBLIC "-//W3C//DTD SVG 1.1//EN" "http://www.w3.org/Graphics/SVG/1.1/DTD/svg11.dtd">
<!-- Creator: CorelDRAW X6 -->
<svg xmlns="http://www.w3.org/2000/svg" xml:space="preserve" width="283.96mm" height="37.5255mm" version="1.1" style="shape-rendering:geometricPrecision; text-rendering:geometricPrecision; image-rendering:optimizeQuality; fill-rule:evenodd; clip-rule:evenodd"
viewBox="0 0 28396 3753"
 xmlns:xlink="http://www.w3.org/1999/xlink">
 <defs>
  <style type="text/css">
   <![CDATA[
    .fil1 {fill:#2B2A29}
    .fil2 {fill:#E94B61}
    .fil0 {fill:#2B2A29;fill-rule:nonzero}
    .fil3 {fill:#D1385D;fill-rule:nonzero}
    .fil7 {fill:url(#id0);fill-rule:nonzero}
    .fil5 {fill:url(#id1);fill-rule:nonzero}
    .fil6 {fill:url(#id2);fill-rule:nonzero}
    .fil4 {fill:url(#id3);fill-rule:nonzero}
   ]]>
  </style>
  <linearGradient id="id0" gradientUnits="userSpaceOnUse" x1="6715.37" y1="960.19" x2="3456.6" y2="2962.58">
   <stop offset="0" style="stop-color:#F29397"/>
   <stop offset="0.501961" style="stop-color:#E8425B"/>
   <stop offset="0.611765" style="stop-color:#E8425B"/>
   <stop offset="1" style="stop-color:#A42960"/>
  </linearGradient>
  <linearGradient id="id1" gradientUnits="userSpaceOnUse" xlink:href="#id0" x1="3607.59" y1="960.19" x2="348.82" y2="2962.59">
  </linearGradient>
  <linearGradient id="id2" gradientUnits="userSpaceOnUse" xlink:href="#id0" x1="5791.97" y1="237.84" x2="3998.19" y2="1639.47">
  </linearGradient>
  <linearGradient id="id3" gradientUnits="userSpaceOnUse" xlink:href="#id0" x1="3065.99" y1="237.83" x2="1272.22" y2="1639.47">
  </linearGradient>
 </defs>
 <g id="Layer_x0020_1">
  <metadata id="CorelCorpID_0Corel-Layer"/>
  <g id="_893394560">
   <g>
    <polygon class="fil0" points="28396,2175 0,2175 0,2140 28396,2140 "/>
   </g>
   <g id="_893397584">
    <path class="fil1" d="M7186 1546c10,-95 15,-260 15,-496l0 -265c0,-109 -4,-202 -11,-281 -4,-46 -10,-72 -17,-80 -7,-7 -32,-14 -75,-20l-73 -11 0 -58c101,4 169,6 204,6l247 -2 201 -4c80,-1 163,7 248,24 85,17 162,51 231,103 69,52 122,116 158,194 36,78 54,168 54,269 0,207 -69,377 -209,512 -139,135 -321,202 -545,202l-113 -3c-111,-4 -181,-7 -210,-7 -50,0 -113,4 -189,11l0 -45 85 -50zm198 -4c83,12 156,18 218,18 171,0 304,-44 399,-132 114,-107 171,-263 171,-467 0,-178 -48,-314 -143,-408 -95,-94 -234,-140 -418,-140 -64,0 -140,6 -228,19 -7,59 -11,125 -11,200l0 599c0,110 4,214 11,310zm1403 -583c24,-23 51,-54 80,-92 34,-44 66,-75 95,-92 29,-17 60,-25 93,-25 33,0 59,4 77,12 8,4 13,9 13,17l-1 9c-10,49 -16,119 -17,207l-41 0c-14,-31 -30,-53 -49,-65 -19,-13 -42,-19 -69,-19 -36,0 -69,12 -100,37 -31,24 -51,59 -62,103 -10,44 -15,130 -15,259 0,85 3,156 10,214 3,21 9,35 18,40 23,13 57,19 102,19l55 0 0 53c-94,-4 -182,-6 -266,-6 -81,0 -162,2 -241,6l0 -53 88 -7c31,-3 51,-8 59,-18 8,-9 13,-39 16,-89 4,-88 6,-193 6,-314 0,-147 -6,-234 -17,-259 -8,-17 -33,-25 -75,-25l-77 0 0 -53c59,-7 112,-15 159,-26 47,-11 88,-24 124,-41 8,-4 16,-6 21,-6 7,0 11,2 14,6 3,3 4,12 4,25l-4 182zm634 483c29,0 54,10 75,31 21,21 31,46 31,76 0,29 -10,54 -31,75 -21,21 -46,32 -75,32 -30,0 -56,-11 -76,-32 -21,-21 -31,-46 -31,-75 0,-30 10,-55 31,-76 21,-21 46,-31 76,-31zm2750 -905l0 635c0,144 3,245 8,302 4,44 12,70 22,79 10,10 39,17 88,21l59 5 0 58c-67,-4 -127,-6 -181,-6 -38,0 -123,2 -257,6l0 -58 66 0c40,0 66,-6 78,-17 12,-11 20,-33 23,-65 7,-67 10,-158 10,-274l0 -455c0,-85 -1,-170 -3,-253 -1,-35 -6,-60 -14,-73 -8,-13 -20,-25 -36,-35 -16,-10 -38,-16 -67,-16l-57 0 0 -58c78,4 137,6 178,6 44,0 92,-2 145,-6 61,74 118,146 171,216 54,70 109,140 167,211l314 385c113,138 195,234 245,288l0 -588c0,-246 -4,-381 -13,-403 -9,-23 -44,-38 -106,-44l-69 -7 0 -58c98,4 175,6 229,6 57,0 130,-2 220,-6l0 58 -70 0c-57,0 -89,19 -98,57 -5,25 -8,159 -8,401l0 413c0,111 5,244 15,398 -83,-13 -131,-23 -144,-28 -13,-6 -26,-16 -38,-29 -68,-75 -139,-159 -214,-251l-660 -816zm1394 463l1 -62 -1 -64 100 -57c45,-25 85,-43 119,-53 34,-10 70,-15 109,-15 85,0 152,19 204,57 52,38 83,86 93,145 7,44 12,153 14,327 1,164 5,255 11,272 6,17 21,26 46,26l71 0 0 60c-70,-4 -118,-6 -146,-6 -34,0 -80,2 -138,6l1 -81c0,-26 0,-53 -1,-79l-190 145c-17,13 -34,22 -50,27 -16,5 -39,8 -69,8 -79,0 -139,-19 -181,-58 -42,-39 -62,-91 -62,-156 0,-62 15,-116 44,-162 30,-46 72,-80 127,-102 54,-22 182,-51 381,-86 -1,-77 -18,-135 -51,-174 -42,-48 -101,-72 -178,-72 -29,0 -57,3 -83,11 -26,7 -49,18 -72,33 -18,44 -34,86 -49,126l-51 -14zm483 145c-170,37 -278,71 -324,103 -46,32 -69,82 -69,149 0,45 13,82 39,109 26,27 60,41 102,41 46,0 90,-13 132,-38 42,-26 82,-64 120,-115l-2 -203 2 -45zm1149 -225c14,39 21,72 21,97 0,54 -17,107 -49,158 -33,51 -80,92 -141,123 -61,31 -127,47 -198,47l-43 0c-40,30 -65,52 -76,66 -11,15 -16,29 -16,43 0,23 12,41 36,55 24,13 73,20 146,20 28,0 69,-1 121,-3 75,-3 130,-5 163,-5 48,0 85,8 111,23 26,15 48,43 66,81 18,39 28,83 28,131 0,69 -21,134 -62,197 -42,63 -102,113 -182,151 -79,38 -171,57 -274,57 -126,0 -223,-27 -291,-82 -68,-55 -102,-122 -102,-202 0,-49 18,-100 53,-151 64,-30 117,-60 160,-91 -50,-16 -82,-31 -96,-45 -14,-13 -21,-31 -21,-52 0,-25 7,-51 21,-75 8,-15 28,-34 60,-55l89 -63c-73,-18 -126,-44 -158,-78 -43,-45 -64,-103 -64,-174 0,-62 16,-118 48,-169 32,-51 79,-91 140,-121 79,-37 155,-56 228,-56 47,0 87,6 122,18 35,12 71,32 108,61l77 0c79,0 141,-2 185,-8l10 19c-18,26 -35,54 -49,82l-169 0zm-139 148c0,-77 -20,-138 -59,-185 -39,-47 -88,-70 -148,-70 -59,0 -106,19 -141,57 -36,38 -54,91 -54,158 0,82 19,146 58,192 39,46 88,69 146,69 59,0 106,-19 143,-59 36,-39 54,-93 54,-163zm-250 582c-43,0 -73,5 -89,15 -51,33 -83,59 -94,80 -18,32 -28,72 -28,120 0,67 25,122 74,165 49,43 118,65 206,65 68,0 127,-13 179,-38 51,-25 91,-59 120,-103 28,-44 43,-89 43,-136 0,-40 -10,-74 -30,-105 -20,-30 -43,-49 -71,-58 -14,-4 -46,-7 -96,-7l-214 0zm748 -650l1 -62 -1 -64 100 -57c45,-25 85,-43 119,-53 34,-10 70,-15 109,-15 85,0 152,19 204,57 52,38 83,86 93,145 7,44 12,153 14,327 1,164 5,255 11,272 6,17 21,26 46,26l71 0 0 60c-70,-4 -118,-6 -146,-6 -34,0 -80,2 -138,6l1 -81c0,-26 0,-53 -1,-79l-190 145c-17,13 -34,22 -50,27 -16,5 -39,8 -69,8 -79,0 -139,-19 -181,-58 -42,-39 -62,-91 -62,-156 0,-62 15,-116 44,-162 30,-46 72,-80 127,-102 54,-22 182,-51 381,-86 -1,-77 -18,-135 -51,-174 -42,-48 -101,-72 -178,-72 -29,0 -57,3 -83,11 -26,7 -49,18 -72,33 -18,44 -34,86 -49,126l-51 -14zm483 145c-170,37 -278,71 -324,103 -46,32 -69,82 -69,149 0,45 13,82 39,109 26,27 60,41 102,41 46,0 90,-13 132,-38 42,-26 82,-64 120,-115l-2 -203 2 -45zm676 -186c24,-23 51,-54 80,-92 34,-44 66,-75 95,-92 29,-17 60,-25 93,-25 33,0 59,4 77,12 8,4 13,9 13,17l-1 9c-10,49 -16,119 -17,207l-41 0c-14,-31 -30,-53 -49,-65 -19,-13 -42,-19 -69,-19 -36,0 -69,12 -100,37 -31,24 -51,59 -62,103 -10,44 -15,130 -15,259 0,85 3,156 10,214 3,21 9,35 18,40 23,13 57,19 102,19l55 0 0 53c-94,-4 -182,-6 -266,-6 -81,0 -162,2 -241,6l0 -53 88 -7c31,-3 51,-8 59,-18 8,-9 13,-39 16,-89 4,-88 6,-193 6,-314 0,-147 -6,-234 -17,-259 -8,-17 -33,-25 -75,-25l-77 0 0 -53c59,-7 112,-15 159,-26 47,-11 88,-24 124,-41 8,-4 16,-6 21,-6 7,0 11,2 14,6 3,3 4,12 4,25l-4 182zm621 -616c28,0 53,10 73,30 20,20 30,45 30,73 0,29 -10,53 -30,73 -20,20 -44,30 -73,30 -29,0 -53,-10 -74,-30 -20,-20 -30,-44 -30,-73 0,-28 10,-53 30,-73 20,-20 45,-30 74,-30zm-226 533l0 -53c85,-9 162,-25 231,-48l81 -29c10,0 15,6 15,18l-2 18c-1,11 -4,55 -8,134 -8,161 -11,295 -11,403l2 236c0,162 -14,282 -42,360 -28,78 -69,138 -125,181 -55,43 -111,64 -168,64l-29 -1 -19 -64c20,4 36,6 47,6 29,0 54,-7 73,-20 29,-22 51,-54 68,-97 16,-44 27,-141 31,-294 5,-152 7,-315 7,-490 0,-183 -3,-284 -10,-300 -7,-17 -32,-25 -75,-25l-65 0zm1217 760l9 -164 -54 59c-42,46 -85,78 -129,97 -43,18 -97,28 -161,28 -55,0 -102,-12 -142,-35 -40,-23 -69,-53 -86,-90 -18,-37 -27,-95 -27,-174 0,-41 1,-89 3,-144l3 -146c0,-103 -3,-160 -9,-171 -6,-12 -26,-17 -59,-17l-83 0 0 -51c84,-8 161,-23 232,-48l77 -29c10,0 16,8 16,23l-6 93c-8,129 -13,249 -13,360 0,111 5,182 14,212 9,31 28,56 57,77 29,20 65,31 107,31 57,0 108,-18 156,-54 47,-37 78,-73 92,-110 8,-21 12,-85 12,-192 0,-180 -3,-277 -10,-293 -6,-13 -34,-19 -83,-19l-73 0 0 -51c63,-8 117,-17 161,-27 44,-10 91,-25 140,-46 6,-3 12,-5 17,-5 10,0 16,6 16,17l-3 85c-9,208 -13,392 -13,550 0,89 5,140 14,152 13,19 43,28 87,28l53 0 0 53c-76,-4 -141,-6 -194,-6 -40,0 -79,2 -119,6zm699 -710l138 -123c16,-15 34,-26 52,-32 40,-13 81,-20 121,-20 65,0 122,13 169,40 48,27 82,61 103,104 21,42 31,109 31,199l-4 289c0,100 4,157 13,172 12,20 34,29 68,29l66 0 0 53c-65,-4 -122,-6 -170,-6 -47,0 -96,2 -150,6 11,-119 17,-280 17,-483 0,-82 -7,-140 -21,-174 -14,-34 -38,-62 -72,-83 -34,-21 -74,-31 -122,-31 -59,0 -109,15 -150,45 -41,30 -67,63 -76,99 -6,24 -9,86 -9,187 0,112 1,216 3,311 1,29 5,47 13,54 16,14 41,21 76,21l66 0 0 53c-104,-4 -187,-6 -248,-6 -65,0 -140,2 -223,6l0 -53 66 0c46,0 72,-11 80,-32 8,-21 12,-148 12,-380 0,-104 -1,-186 -4,-245 -1,-20 -6,-33 -15,-40 -8,-7 -33,-11 -73,-11l-66 0 0 -53c53,-6 100,-14 141,-25 42,-11 89,-27 141,-48 6,-3 11,-4 16,-4 10,0 15,7 15,21l-1 35 -2 124zm896 73l1 -62 -1 -64 100 -57c45,-25 85,-43 119,-53 34,-10 70,-15 109,-15 84,0 152,19 204,57 52,38 83,86 93,145 7,44 12,153 14,327 1,164 5,255 11,272 6,17 21,26 46,26l71 0 0 60c-70,-4 -118,-6 -146,-6 -34,0 -80,2 -138,6l1 -81c0,-26 0,-53 -1,-79l-190 145c-17,13 -34,22 -50,27 -16,5 -39,8 -69,8 -79,0 -139,-19 -181,-58 -42,-39 -62,-91 -62,-156 0,-62 15,-116 44,-162 30,-46 72,-80 127,-102 54,-22 182,-51 381,-86 -1,-77 -18,-135 -51,-174 -42,-48 -101,-72 -178,-72 -29,0 -57,3 -83,11 -26,7 -49,18 -72,33 -18,44 -34,86 -49,126l-51 -14zm483 145c-170,37 -278,71 -324,103 -46,32 -69,82 -69,149 0,45 13,82 39,109 26,27 60,41 102,41 46,0 90,-13 132,-38 42,-26 82,-64 120,-115l-2 -203 2 -45zm2186 -613l-273 567c-102,212 -186,398 -252,557l-39 0c-23,-54 -87,-193 -193,-417l-326 -675 0 703c0,164 7,257 20,279 13,22 54,33 123,33l34 0 0 58c-85,-4 -154,-6 -207,-6 -38,0 -115,2 -230,6l0 -58 60 0c40,0 67,-6 81,-18 13,-12 22,-33 25,-63 8,-85 11,-177 11,-276l0 -518c0,-125 -3,-208 -8,-248 -2,-21 -12,-37 -27,-48 -16,-11 -47,-17 -93,-17l-49 0 0 -58c106,4 173,6 200,6 35,0 84,-2 148,-6 74,165 159,346 255,545l241 497 224 -461c79,-161 168,-355 269,-582 76,4 130,6 161,6 36,0 101,-2 195,-6l0 58 -60 0c-54,0 -87,9 -99,28 -12,19 -18,85 -18,201l0 669c0,149 6,234 19,256 13,22 48,33 105,33l52 0 0 58c-85,-4 -166,-6 -244,-6 -86,0 -175,2 -269,6l0 -58 61 0c48,0 77,-11 88,-32 10,-21 15,-111 15,-271l0 -744zm524 468l1 -62 -1 -64 100 -57c45,-25 85,-43 119,-53 34,-10 70,-15 109,-15 84,0 152,19 204,57 52,38 83,86 93,145 7,44 12,153 14,327 1,164 5,255 11,272 6,17 21,26 46,26l71 0 0 60c-70,-4 -118,-6 -146,-6 -34,0 -80,2 -138,6l1 -81c0,-26 0,-53 -1,-79l-190 145c-17,13 -34,22 -50,27 -16,5 -39,8 -69,8 -79,0 -139,-19 -181,-58 -42,-39 -62,-91 -62,-156 0,-62 15,-116 44,-162 30,-46 72,-80 127,-102 54,-22 182,-51 381,-86 -1,-77 -18,-135 -51,-174 -42,-48 -101,-72 -178,-72 -29,0 -57,3 -83,11 -26,7 -49,18 -72,33 -18,44 -34,86 -49,126l-51 -14zm483 145c-170,37 -278,71 -324,103 -46,32 -69,82 -69,149 0,45 13,82 39,109 26,27 60,41 102,41 46,0 90,-13 132,-38 42,-26 82,-64 120,-115l-2 -203 2 -45zm671 -229l0 360c0,94 3,154 9,180 6,26 19,47 37,62 19,15 43,22 71,22 18,0 35,-3 52,-10 17,-7 33,-17 50,-31l27 32 -90 105c-20,7 -39,12 -57,15 -18,3 -37,5 -54,5 -45,0 -84,-8 -115,-24 -31,-16 -54,-37 -68,-63 -14,-26 -21,-65 -21,-118l4 -177 0 -349c-47,0 -96,2 -146,6l0 -38c53,-20 102,-40 146,-61 -1,-87 -3,-182 -8,-284 71,-30 123,-54 154,-73l24 18c-5,48 -10,160 -15,338 74,0 135,-1 182,-2l73 -3 -9 92 -38 -1 -176 1 -32 0zm1045 721l9 -164 -54 59c-42,46 -85,78 -129,97 -43,18 -97,28 -161,28 -55,0 -102,-12 -142,-35 -40,-23 -69,-53 -86,-90 -18,-37 -27,-95 -27,-174 0,-41 1,-89 3,-144l3 -146c0,-103 -3,-160 -9,-171 -6,-12 -26,-17 -59,-17l-83 0 0 -51c84,-8 161,-23 232,-48l77 -29c10,0 16,8 16,23l-6 93c-8,129 -13,249 -13,360 0,111 5,182 14,212 9,31 28,56 57,77 29,20 65,31 107,31 57,0 108,-18 156,-54 47,-37 78,-73 92,-110 8,-21 12,-85 12,-192 0,-180 -3,-277 -10,-293 -6,-13 -34,-19 -83,-19l-73 0 0 -51c63,-8 117,-17 161,-27 44,-10 91,-25 140,-46 6,-3 12,-5 17,-5 10,0 16,6 16,17l-3 85c-9,208 -13,392 -13,550 0,89 5,140 14,152 13,19 43,28 87,28l53 0 0 53c-76,-4 -141,-6 -194,-6 -40,0 -79,2 -119,6zm714 -678c24,-23 51,-54 80,-92 34,-44 66,-75 95,-92 29,-17 60,-25 93,-25 33,0 59,4 77,12 8,4 13,9 13,17l-1 9c-10,49 -16,119 -17,207l-41 0c-14,-31 -30,-53 -49,-65 -19,-13 -42,-19 -69,-19 -36,0 -69,12 -100,37 -31,24 -51,59 -62,103 -10,44 -15,130 -15,259 0,85 3,156 10,214 3,21 9,35 18,40 23,13 57,19 102,19l55 0 0 53c-94,-4 -182,-6 -266,-6 -81,0 -162,2 -241,6l0 -53 88 -7c31,-3 51,-8 59,-18 8,-9 13,-39 16,-89 4,-88 6,-193 6,-314 0,-147 -6,-234 -17,-259 -8,-17 -33,-25 -75,-25l-77 0 0 -53c59,-7 112,-15 159,-26 47,-11 88,-24 124,-41 8,-4 16,-6 21,-6 7,0 11,2 14,6 2,3 4,12 4,25l-4 182zm1168 678l9 -164 -54 59c-42,46 -85,78 -129,97 -43,18 -97,28 -161,28 -55,0 -102,-12 -142,-35 -40,-23 -69,-53 -86,-90 -18,-37 -27,-95 -27,-174 0,-41 1,-89 3,-144l3 -146c0,-103 -3,-160 -9,-171 -6,-12 -26,-17 -59,-17l-83 0 0 -51c84,-8 161,-23 232,-48l77 -29c10,0 16,8 16,23l-6 93c-8,129 -13,249 -13,360 0,111 5,182 14,212 9,31 28,56 57,77 29,20 65,31 107,31 57,0 108,-18 156,-54 47,-37 78,-73 92,-110 8,-21 12,-85 12,-192 0,-180 -3,-277 -10,-293 -6,-13 -34,-19 -83,-19l-73 0 0 -51c63,-8 117,-17 161,-27 44,-10 91,-25 140,-46 6,-3 12,-5 17,-5 10,0 16,6 16,17l-3 85c-9,208 -13,392 -13,550 0,89 5,140 14,152 13,19 43,28 87,28l53 0 0 53c-76,-4 -141,-6 -194,-6 -40,0 -79,2 -119,6zm-16713 15c-28,-82 -56,-158 -84,-230l-329 -820c-47,-118 -74,-183 -83,-194 -8,-11 -34,-17 -79,-17l-38 0 0 -58c96,4 177,6 244,6 71,0 156,-2 254,-6l0 58 -90 0c-31,0 -51,3 -60,9 -9,6 -14,15 -14,27 0,8 2,17 5,27l119 316 249 635 242 -605c81,-202 122,-320 122,-355 0,-28 -17,-42 -50,-43l-37 -3 -79 -8 0 -58c81,4 148,6 200,6 55,0 124,-2 207,-6l0 58 -37 0c-29,0 -51,7 -64,21 -13,13 -37,62 -71,146l-309 754c-58,142 -100,255 -124,340l-94 0z"/>
    <path class="fil1" d="M11068 1442c29,0 54,10 75,31 21,21 31,46 31,76 0,29 -10,54 -31,75 -21,21 -46,32 -75,32 -30,0 -56,-11 -76,-32 -21,-21 -31,-46 -31,-75 0,-30 10,-55 31,-76 21,-21 46,-31 76,-31z"/>
   </g>
   <path class="fil2" d="M8085 2783l0 261 64 0c52,0 92,-11 120,-34 28,-23 42,-56 42,-99 0,-40 -13,-72 -39,-94 -26,-22 -62,-34 -109,-34l-78 0zm-98 -77l174 0c83,0 146,17 188,52 42,34 63,86 63,155 0,66 -22,117 -67,153 -45,36 -107,54 -189,54l-71 0 0 286 -98 0 0 -700zm529 0l98 0 0 412c0,75 14,130 41,166 27,36 69,54 125,54 57,0 99,-19 128,-58 29,-39 43,-96 43,-171l0 -404 91 0 0 405c0,103 -22,179 -66,231 -44,51 -110,77 -198,77 -85,0 -150,-25 -194,-75 -44,-50 -66,-124 -66,-223l0 -415zm702 0l98 0 0 619 280 0 0 82 -377 0 0 -700zm469 0l148 0 207 543c5,13 9,27 12,42 3,15 5,31 6,47 2,-21 5,-40 8,-56 3,-16 6,-27 9,-35l215 -542 146 0 0 700 -95 0 0 -550c0,-17 1,-35 2,-53 1,-18 3,-37 6,-56 -4,18 -9,36 -14,52 -5,16 -10,31 -16,45l-222 562 -87 0 -221 -571c-3,-9 -7,-20 -11,-35 -4,-15 -8,-32 -12,-51 2,32 3,57 4,75 1,18 2,29 2,34l0 548 -87 0 0 -700zm1206 65c-65,0 -118,26 -157,78 -39,52 -59,121 -59,207 0,86 20,155 59,207 40,51 92,77 157,77 65,0 118,-26 157,-77 40,-51 59,-120 59,-207 0,-86 -20,-155 -60,-207 -40,-52 -92,-78 -157,-78zm0 -78c98,0 175,32 232,97 57,65 85,154 85,266 0,113 -28,201 -85,266 -57,65 -134,97 -232,97 -98,0 -175,-32 -233,-97 -57,-65 -86,-154 -86,-266 0,-112 29,-201 86,-266 57,-65 135,-97 233,-97zm457 13l123 0 305 545c4,8 9,20 15,36 6,16 12,36 19,58 -4,-26 -8,-49 -10,-69 -2,-21 -3,-38 -3,-53l0 -516 90 0 0 700 -120 0 -310 -550c-4,-7 -9,-18 -14,-33 -6,-16 -12,-36 -19,-61 5,38 8,66 11,87 2,20 3,35 3,44l0 513 -90 0 0 -700zm966 86l-139 356 273 0 -135 -356zm-58 -86l119 0 274 700 -106 0 -67 -180 -333 0 -67 180 -99 0 279 -700zm566 76l0 238 75 0c49,0 87,-11 115,-32 28,-21 42,-51 42,-89 0,-40 -13,-70 -39,-89 -26,-19 -66,-28 -121,-28l-72 0zm-97 -76l189 0c80,0 140,15 180,45 40,30 60,75 60,134 0,44 -13,81 -39,111 -26,29 -64,49 -113,60 21,6 38,15 51,29 13,13 27,37 41,70l106 251 -105 0 -92 -229c-12,-29 -27,-50 -46,-63 -18,-12 -45,-18 -78,-18l-56 0 0 310 -97 0 0 -700zm473 0l115 0 194 332 198 -332 107 0 -258 410 0 290 -99 0 0 -288 -256 -413zm1147 365c-35,16 -62,37 -81,62 -19,25 -29,52 -29,82 0,37 14,68 42,94 28,25 64,38 106,38 30,0 57,-6 82,-17 25,-12 48,-29 68,-52l-189 -206zm80 -35l165 178c18,-26 33,-54 43,-86 10,-32 16,-66 19,-104l84 0c-2,48 -10,92 -25,134 -15,42 -36,80 -64,116l123 133 -116 0 -66 -72c-29,28 -61,49 -96,63 -35,14 -74,21 -116,21 -70,0 -126,-18 -170,-56 -43,-37 -65,-86 -65,-145 0,-45 13,-84 39,-117 26,-33 64,-61 115,-82 -29,-31 -51,-59 -64,-86 -14,-27 -21,-53 -21,-80 0,-47 18,-85 53,-115 35,-29 82,-44 139,-44 56,0 101,14 135,42 34,28 51,65 51,111 0,39 -13,75 -40,106 -27,32 -67,59 -121,83zm-47 -51c40,-18 71,-37 92,-59 21,-22 31,-45 31,-70 0,-26 -9,-48 -28,-65 -19,-17 -43,-25 -74,-25 -30,0 -54,8 -73,25 -19,17 -28,38 -28,65 0,19 6,38 17,57 12,19 32,43 63,72zm1287 -253l-4 85c-27,-11 -53,-20 -79,-25 -26,-6 -52,-8 -79,-8 -84,0 -151,25 -200,74 -49,49 -74,115 -74,199 0,84 25,151 74,199 49,48 116,72 201,72 27,0 53,-3 79,-8 26,-5 51,-13 76,-23l3 88c-24,8 -50,14 -78,18 -28,4 -57,6 -88,6 -115,0 -205,-31 -271,-93 -66,-62 -99,-147 -99,-255 0,-109 34,-195 101,-260 67,-64 158,-97 272,-97 31,0 60,2 87,7 28,4 54,11 78,21zm210 50l0 238 75 0c49,0 87,-11 115,-32 28,-21 42,-51 42,-89 0,-40 -13,-70 -39,-89 -26,-19 -66,-28 -121,-28l-72 0zm-97 -76l189 0c80,0 140,15 180,45 40,30 60,75 60,134 0,44 -13,81 -39,111 -26,29 -64,49 -113,60 21,6 38,15 51,29 13,13 27,37 41,70l106 251 -105 0 -92 -229c-12,-29 -27,-50 -46,-63 -18,-12 -45,-18 -78,-18l-56 0 0 310 -97 0 0 -700zm576 0l98 0 0 700 -98 0 0 -700zm194 0l490 0 0 82 -196 0 0 619 -99 0 0 -619 -196 0 0 -82zm586 0l98 0 0 700 -98 0 0 -700zm774 25l-4 85c-27,-11 -53,-20 -79,-25 -26,-6 -52,-8 -79,-8 -84,0 -151,25 -200,74 -49,49 -74,115 -74,199 0,84 25,151 74,199 49,48 116,72 201,72 27,0 53,-3 79,-8 26,-5 51,-13 76,-23l3 88c-24,8 -50,14 -78,18 -28,4 -57,6 -88,6 -115,0 -205,-31 -271,-93 -66,-62 -99,-147 -99,-255 0,-109 34,-195 101,-260 67,-64 158,-97 272,-97 31,0 60,2 87,7 28,4 54,11 78,21zm367 61l-139 356 273 0 -135 -356zm-58 -86l119 0 274 700 -106 0 -67 -180 -333 0 -67 180 -99 0 279 -700zm470 0l98 0 0 619 280 0 0 82 -377 0 0 -700zm1261 25l-4 85c-27,-11 -53,-20 -79,-25 -26,-6 -52,-8 -79,-8 -84,0 -151,25 -200,74 -49,49 -74,115 -74,199 0,84 25,151 74,199 49,48 116,72 201,72 27,0 53,-3 79,-8 26,-5 51,-13 76,-23l3 88c-24,8 -50,14 -78,18 -28,4 -57,6 -88,6 -115,0 -205,-31 -271,-93 -66,-62 -99,-147 -99,-255 0,-109 34,-195 101,-260 67,-64 158,-97 272,-97 31,0 60,2 87,7 28,4 54,11 78,21zm367 61l-139 356 273 0 -135 -356zm-58 -86l119 0 274 700 -106 0 -67 -180 -333 0 -67 180 -99 0 279 -700zm566 76l0 238 75 0c49,0 87,-11 115,-32 28,-21 42,-51 42,-89 0,-40 -13,-70 -39,-89 -26,-19 -66,-28 -121,-28l-72 0zm-97 -76l189 0c80,0 140,15 180,45 40,30 60,75 60,134 0,44 -13,81 -39,111 -26,29 -64,49 -113,60 21,6 38,15 51,29 13,13 27,37 41,70l106 251 -105 0 -92 -229c-12,-29 -27,-50 -46,-63 -18,-12 -45,-18 -78,-18l-56 0 0 310 -97 0 0 -700zm576 0l379 0 0 76 -281 0 0 222 266 0 0 79 -266 0 0 243 291 0 0 81 -388 0 0 -700zm830 0l148 0 207 543c5,13 9,27 12,42 3,15 5,31 6,47 2,-21 5,-40 8,-56 3,-16 6,-27 9,-35l215 -542 146 0 0 700 -95 0 0 -550c0,-17 1,-35 2,-53 1,-18 3,-37 6,-56 -4,18 -9,36 -14,52 -5,16 -10,31 -16,45l-222 562 -87 0 -221 -571c-3,-9 -7,-20 -11,-35 -4,-15 -8,-32 -12,-51 2,32 3,57 4,75 1,18 2,29 2,34l0 548 -87 0 0 -700zm923 0l379 0 0 76 -281 0 0 222 266 0 0 79 -266 0 0 243 291 0 0 81 -388 0 0 -700zm638 79l0 540 80 0c87,0 155,-24 204,-71 49,-47 73,-114 73,-200 0,-88 -23,-154 -70,-200 -47,-46 -116,-68 -206,-68l-81 0zm-98 -79l163 0c131,0 230,29 295,88 66,59 99,147 99,264 0,112 -34,198 -103,258 -69,60 -166,90 -294,90l-161 0 0 -700zm692 0l98 0 0 700 -98 0 0 -700zm774 25l-4 85c-27,-11 -53,-20 -79,-25 -26,-6 -52,-8 -79,-8 -84,0 -151,25 -200,74 -49,49 -74,115 -74,199 0,84 25,151 74,199 49,48 116,72 201,72 27,0 53,-3 79,-8 26,-5 51,-13 76,-23l3 88c-24,8 -50,14 -78,18 -28,4 -57,6 -88,6 -115,0 -205,-31 -271,-93 -66,-62 -99,-147 -99,-255 0,-109 34,-195 101,-260 67,-64 158,-97 272,-97 31,0 60,2 87,7 28,4 54,11 78,21zm113 -25l98 0 0 700 -98 0 0 -700zm271 0l123 0 305 545c4,8 9,20 15,36 6,16 12,36 19,58 -4,-26 -8,-49 -10,-69 -2,-21 -3,-38 -3,-53l0 -516 90 0 0 700 -120 0 -310 -550c-4,-7 -9,-18 -14,-33 -6,-16 -12,-36 -19,-61 5,38 8,66 11,87 2,20 3,35 3,44l0 513 -90 0 0 -700zm711 0l379 0 0 76 -281 0 0 222 266 0 0 79 -266 0 0 243 291 0 0 81 -388 0 0 -700z"/>
   <path class="fil3" d="M1264 3752c231,-15 446,-225 908,-349 386,-103 729,-91 981,-341 185,-184 148,-684 123,-1247 -23,-509 -82,-1059 -204,-1418 187,552 55,1162 -343,1596 -743,812 -2038,1431 -1466,1759z"/>
   <path class="fil4" d="M2754 1c-405,-38 -1168,793 -1584,1913 219,-385 1009,-606 1527,-854 346,-165 471,-591 263,-908 -59,-89 -127,-143 -206,-151z"/>
   <path class="fil5" d="M2730 1993c405,-443 535,-1068 331,-1629 -27,-75 -58,-141 -91,-196 194,315 67,729 -273,892 -519,248 -1308,468 -1527,854 3,-8 6,-15 9,-23 -148,392 -253,819 -286,1258 -24,316 25,537 251,592 42,10 82,13 122,11 -572,-328 723,-947 1466,-1759z"/>
   <path class="fil3" d="M4003 365c-3,8 -5,15 -8,23 3,-8 5,-15 8,-23zm-9 26c-123,359 -183,912 -206,1424 -25,562 -62,1063 123,1247 252,250 595,238 981,341 462,123 677,333 908,349 572,-328 -723,-947 -1466,-1759 -399,-435 -530,-1048 -341,-1602z"/>
   <path class="fil6" d="M4311 1c405,-38 1168,793 1584,1913 -219,-385 -1009,-606 -1527,-854 -346,-165 -471,-591 -263,-908 59,-89 127,-143 206,-151z"/>
   <path class="fil7" d="M4334 1993c-405,-443 -535,-1068 -331,-1629 27,-75 58,-141 91,-196 -194,315 -67,729 273,892 519,248 1308,468 1527,854 -3,-8 -6,-15 -9,-23 148,392 253,819 286,1258 24,316 -25,537 -251,592 -42,10 -82,13 -122,11 572,-328 -723,-947 -1466,-1759z"/>
  </g>
 </g>
</svg>
